<svg xmlns="http://www.w3.org/2000/svg" xmlns:xlink="http://www.w3.org/1999/xlink" viewBox="0 0 141.61 132.88"><defs><style>.cls-1{isolation:isolate;}.cls-2{fill:gray;}.cls-3{fill:url(#linear-gradient);}.cls-4{fill:url(#linear-gradient-2);}</style><linearGradient id="linear-gradient" x1="109.1" y1="-18.44" x2="29.06" y2="136.35" gradientUnits="userSpaceOnUse"><stop offset="0" stop-color="#8e4b19"/><stop offset="0.08" stop-color="#dd9740"/><stop offset="0.17" stop-color="#faebcb"/><stop offset="0.18" stop-color="#f4d395"/><stop offset="0.2" stop-color="#eaad3d"/><stop offset="0.2" stop-color="#e8ab3c"/><stop offset="0.28" stop-color="#9a4721"/><stop offset="0.38" stop-color="#dd9740"/><stop offset="0.46" stop-color="#ebd6a9"/><stop offset="0.5" stop-color="#eebd62"/><stop offset="0.5" stop-color="#eab55b"/><stop offset="0.51" stop-color="#e19f47"/><stop offset="0.52" stop-color="#dd9740"/><stop offset="0.56" stop-color="#834016"/><stop offset="0.63" stop-color="#97541d"/><stop offset="0.69" stop-color="#c37934"/><stop offset="0.75" stop-color="#e7b36e"/><stop offset="0.81" stop-color="#b46c2a"/><stop offset="0.83" stop-color="#9f5921"/><stop offset="0.85" stop-color="#914d1b"/><stop offset="0.87" stop-color="#8c4919"/><stop offset="0.96" stop-color="#a75b29"/></linearGradient><linearGradient id="linear-gradient-2" x1="27.94" y1="73.06" x2="141.61" y2="73.06" gradientUnits="userSpaceOnUse"><stop offset="0" stop-color="#803916"/><stop offset="0.03" stop-color="#9a4721"/><stop offset="0.16" stop-color="#dd9740"/><stop offset="0.19" stop-color="#e7b36e"/><stop offset="0.23" stop-color="#efcb96"/><stop offset="0.26" stop-color="#f5ddb3"/><stop offset="0.29" stop-color="#f9e7c5"/><stop offset="0.31" stop-color="#faebcb"/><stop offset="0.34" stop-color="#f7e0b1"/><stop offset="0.4" stop-color="#f1ca7f"/><stop offset="0.45" stop-color="#edba5b"/><stop offset="0.5" stop-color="#ebb145"/><stop offset="0.53" stop-color="#eaad3d"/><stop offset="0.76" stop-color="#a75b29"/><stop offset="0.88" stop-color="#b46c2a"/><stop offset="0.96" stop-color="#642806"/><stop offset="0.99" stop-color="#7d3d16"/></linearGradient></defs><title>Fichier 7</title><g id="Calque_2" data-name="Calque 2"><g id="OBJECTS"><g class="cls-1"><polygon class="cls-2" points="28.49 132.88 0.55 119.64 0 118.94 27.94 132.18 28.49 132.88"/><path class="cls-3" d="M140.79,13.53l.28-.29L113.12,0a9.49,9.49,0,0,1-.72.7l-.16.16c-.26.22-.51.43-.77.62a9.3,9.3,0,0,1-1,.64l-.19.1c-.26.15-.52.29-.78.41a5.32,5.32,0,0,1-.5.21l-.32.13-.61.19-.24.08c-.29.07-.57.13-.86.18l-.17,0-.68.09c-.39,0-.79,0-1.18,0h-.3c-.33,0-.67,0-1,0h-.23c-.4,0-.8-.08-1.2-.14l-.3,0-1-.16-.25-.05-2.06-.39c-.69-.14-1.38-.28-2.07-.4l-.08,0-.16,0-1-.17-.31,0c-.42-.06-.84-.11-1.26-.14h-.2c-.36,0-.71,0-1.07-.05h-.33c-.42,0-.84,0-1.26.07h0q-.45,0-.9.12l-.22,0a6.53,6.53,0,0,0-.71.16l-.33.1c-.2.06-.4.11-.59.18l-.37.15-.42.17L87.19,3c-.28.13-.56.27-.84.43l-.21.12a11.14,11.14,0,0,0-1,.7l-.06,0c-.26.2-.51.41-.77.64l-.18.17q-.24.21-.48.45l-.3.31q-.47.48-.87,1h0l-.07.09c-.27.34-.52.69-.75,1l-.07.11c-.06.09-.1.18-.16.27-.16.27-.32.53-.46.8l-.12.2a1.76,1.76,0,0,1-.09.2c-.17.35-.32.7-.47,1.05,0,.07-.06.13-.08.19l0,.09-.15.43c-.07.2-.14.4-.2.61l-.12.46c0,.14-.09.29-.12.43l0,.14c-.07.29-.12.57-.17.86a3.43,3.43,0,0,0-.06.34c-.07.4-.12.8-.16,1.2,0,.08,0,.15,0,.22,0,.34-.06.67-.08,1,0,.15,0,.29,0,.44l0,.8v.48c0,.26,0,.51,0,.76s0,.33,0,.5l0,.77c0,.16,0,.31,0,.47s0,.57,0,.86c0,.12,0,.25,0,.37,0,.4,0,.8.08,1.2s0,.8.08,1.2c0,.12,0,.24,0,.36,0,.29,0,.57,0,.85s0,.3,0,.46l0,.76c0,.16,0,.31,0,.47s0,.5,0,.74v.46c0,.27,0,.53,0,.79s0,.26,0,.39c0,.37,0,.74-.08,1.1v.06q-.06.57-.15,1.14l-.06.35c0,.25-.1.51-.16.76s-.08.36-.13.54-.07.28-.11.42l-.19.57-.14.39c0,.09-.07.19-.11.28-.13.32-.27.63-.42.94-.06.12-.12.25-.19.37s-.27.49-.42.73l-.22.35c-.21.32-.43.63-.68.94a1,1,0,0,0-.08.11c-.25.31-.51.61-.8.91s-.48.48-.72.7l-.17.16c-.25.22-.51.43-.76.62a10.83,10.83,0,0,1-1,.65l-.19.1c-.25.15-.51.28-.77.41l-.51.21-.32.13-.61.19-.24.07a8.23,8.23,0,0,1-.86.19l-.16,0-.69.09a11.51,11.51,0,0,1-1.18.06H67c-.33,0-.66,0-1-.05h-.24c-.4,0-.8-.08-1.2-.13l-.29,0c-.34,0-.68-.1-1-.16l-.24,0c-.69-.12-1.38-.26-2.07-.4L58.87,42h-.09l-.16,0-1-.16-.32,0L56,41.61h-.21c-.35,0-.71,0-1.06,0h-.34c-.42,0-.84,0-1.25.06h0c-.3,0-.61.07-.91.13l-.21,0L51.3,42l-.33.1-.59.19-.37.15-.42.16-.1.06c-.29.13-.57.28-.85.44l-.21.11c-.35.21-.69.45-1,.71l0,0c-.26.19-.52.41-.78.63l-.18.17-.48.45-.3.31q-.47.49-.87,1h0l-.06.09c-.27.34-.52.69-.75,1a.76.76,0,0,0-.08.11c-.06.08-.1.18-.16.27-.16.26-.32.53-.46.8L43.1,49a1.89,1.89,0,0,0-.09.21c-.17.34-.33.69-.47,1l-.09.19,0,.08c-.05.14-.09.29-.14.43l-.21.61L42,52l-.12.44,0,.14c-.06.28-.12.57-.17.86l-.06.33c-.06.4-.12.8-.16,1.21,0,.07,0,.14,0,.22,0,.33,0,.66-.07,1,0,.14,0,.29,0,.44s0,.53,0,.79v1.25c0,.16,0,.33,0,.49l0,.78c0,.15,0,.31,0,.47s0,.57,0,.85c0,.13,0,.25,0,.38,0,.4.05.8.08,1.2s0,.79.07,1.18c0,.13,0,.26,0,.39,0,.28,0,.56.05.84s0,.3,0,.45,0,.51,0,.76,0,.32,0,.48,0,.5,0,.74v.46c0,.27,0,.53,0,.79s0,.26,0,.39c0,.38,0,.75-.09,1.12v0c0,.38-.09.76-.15,1.13l-.06.36c0,.25-.1.51-.16.76s-.08.36-.13.54-.07.28-.11.41-.12.39-.19.58-.08.26-.13.39l-.12.28q-.2.48-.42.93c-.06.13-.12.25-.19.38s-.27.48-.42.72-.14.24-.22.36c-.2.31-.43.62-.67.93l-.08.11c-.25.31-.52.62-.81.92s-.47.48-.71.69l-.18.17c-.25.22-.51.43-.76.62a10.67,10.67,0,0,1-1,.64l-.19.11c-.26.15-.51.28-.77.4l-.51.22c-.11,0-.21.09-.32.12a6.21,6.21,0,0,1-.61.2l-.24.07c-.28.07-.57.14-.85.19l-.17,0c-.23,0-.46.07-.69.09-.39,0-.79,0-1.18.06h-.3c-.34,0-.68,0-1,0H28c-.4,0-.81-.08-1.21-.14l-.31,0-1-.17-.24,0-2-.39c-.69-.13-1.37-.27-2.06-.39l-.09,0-.16,0-1-.16-.32,0c-.42-.05-.84-.1-1.26-.13l-.2,0-1.07,0H16.7q-.63,0-1.26.06h0c-.31,0-.61.08-.91.13l-.21,0-.72.16-.33.1-.59.19L12.3,82c-.14.06-.28.1-.42.17l-.11.05c-.28.13-.56.28-.83.44a1.55,1.55,0,0,0-.22.12,11.14,11.14,0,0,0-1,.7l-.06,0c-.25.19-.51.41-.77.63l-.18.17-.48.45-.3.31q-.46.5-.87,1v0l-.07.09c-.27.34-.52.68-.75,1l-.07.11c-.06.09-.1.18-.16.27-.16.26-.32.53-.46.8l-.12.19a1.89,1.89,0,0,1-.09.21c-.17.35-.32.69-.46,1l-.09.19,0,.08-.15.43c-.07.21-.14.41-.2.62l-.12.45c0,.15-.09.29-.12.44l0,.14c-.06.28-.12.57-.17.86l-.06.33c-.07.4-.12.81-.16,1.21,0,.07,0,.15,0,.22,0,.33-.06.66-.07,1,0,.14,0,.29,0,.44s0,.53,0,.79,0,.33,0,.49,0,.51,0,.76,0,.33,0,.49l0,.78c0,.15,0,.31,0,.47s0,.57.05.85c0,.13,0,.25,0,.38,0,.4,0,.8.07,1.2s0,.8.08,1.19c0,.13,0,.25,0,.37,0,.28,0,.57,0,.85s0,.3,0,.45,0,.51,0,.77,0,.31,0,.47,0,.49,0,.74v.46c0,.26,0,.52,0,.78s0,.27,0,.4c0,.37-.05.73-.08,1.1a.13.13,0,0,0,0,.06c0,.38-.09.76-.15,1.13l-.06.35c0,.26-.1.52-.16.77s-.08.36-.13.54-.07.28-.11.41-.12.39-.19.58l-.13.39-.12.28q-.19.47-.42.93c-.06.13-.12.25-.19.38s-.27.48-.42.72-.14.24-.22.36c-.21.31-.43.62-.67.93L.8,118c-.25.31-.51.62-.8.92l27.94,13.24a11.19,11.19,0,0,0,.8-.92h0l.06-.09a11.08,11.08,0,0,0,.68-.94l.08-.1.14-.25c.15-.25.29-.49.42-.73a1.74,1.74,0,0,0,.11-.18l.08-.2a8.56,8.56,0,0,0,.42-.93l.09-.19,0-.09c.05-.13.09-.26.13-.39s.13-.38.19-.58.08-.27.11-.41.08-.26.11-.39a.8.8,0,0,1,0-.15l.15-.77c0-.11.05-.23.06-.35.06-.37.11-.75.15-1.13,0,0,0,0,0-.06,0-.37.06-.73.08-1.1,0-.13,0-.27,0-.4s0-.52,0-.78v-1.2c0-.16,0-.32,0-.48s0-.5,0-.76,0-.3,0-.45,0-.57-.05-.86c0-.12,0-.24,0-.36,0-.39-.05-.79-.08-1.19s-.05-.8-.07-1.2c0-.12,0-.25,0-.38s0-.57-.05-.85,0-.31,0-.47l0-.78c0-.16,0-.32,0-.49s0-.51,0-.76,0-.32,0-.48,0-.54,0-.8,0-.29,0-.44c0-.33,0-.67.07-1,0-.07,0-.15,0-.22,0-.4.09-.81.16-1.21l.06-.33c.05-.29.11-.57.17-.86l.15-.57.12-.46.21-.61c0-.15.09-.29.14-.44l.12-.27c.14-.35.29-.7.47-1.05.06-.14.13-.27.2-.4s.3-.54.46-.8.15-.25.24-.38c.23-.35.48-.69.75-1l.07-.11q.4-.5.87-1c.26-.27.52-.51.78-.75l.18-.18c.28-.24.56-.46.83-.67s.69-.49,1-.7a1.55,1.55,0,0,1,.22-.12,8.37,8.37,0,0,1,.84-.44l.52-.22.37-.15.59-.19.33-.1.72-.16.21,0c.31-.06.62-.1.93-.13s.83-.06,1.25-.06H45l1.08,0,.2,0c.41,0,.83.08,1.25.13l.32,0,1,.16.25.05c.69.12,1.38.26,2.06.39l2,.39.09,0,.15,0,1,.17.3,0c.41.06.81.1,1.21.14h.22c.34,0,.68,0,1,0h.3c.4,0,.79,0,1.19-.06h0c.21,0,.42-.06.63-.09l.18,0c.28,0,.57-.12.85-.19l.25-.07.6-.19.32-.13.42-.17.09,0a8,8,0,0,0,.77-.4l.2-.1c.32-.2.63-.41,1-.65l0,0c.24-.18.48-.38.71-.59l.18-.16.43-.41.28-.29c.29-.3.56-.61.81-.92h0l.07-.09c.24-.31.47-.63.68-.94a.86.86,0,0,1,.07-.1l.14-.25c.15-.25.29-.49.42-.73a1.74,1.74,0,0,0,.11-.18c0-.07.05-.13.08-.19a8.71,8.71,0,0,0,.42-.94l.09-.19,0-.09c0-.13.09-.26.13-.4s.13-.37.19-.56.08-.28.11-.42.08-.25.11-.38a.8.8,0,0,1,0-.15l.15-.78c0-.11,0-.23.06-.34q.09-.57.15-1.14v0c0-.37.06-.74.08-1.12,0-.13,0-.26,0-.39s0-.52,0-.79v-1.2c0-.16,0-.32,0-.48s0-.5,0-.76,0-.3,0-.45,0-.56,0-.84c0-.13,0-.26,0-.39,0-.39,0-.79-.07-1.18s-.05-.8-.08-1.2c0-.13,0-.25,0-.38,0-.28,0-.57,0-.85s0-.32,0-.47l0-.78c0-.16,0-.33,0-.49V70.67c0-.26,0-.53,0-.8s0-.29,0-.43c0-.33,0-.66.07-1,0-.07,0-.15,0-.22,0-.41.1-.81.16-1.21l.06-.33c.06-.29.11-.58.18-.86s.09-.39.14-.58.08-.3.13-.46.13-.41.2-.61.09-.29.15-.43.07-.18.11-.27c.14-.36.3-.71.47-1,.06-.14.13-.27.2-.4s.3-.54.47-.8.15-.26.23-.38c.23-.35.48-.7.75-1a.86.86,0,0,0,.07-.1q.4-.5.87-1t.78-.75l.19-.18c.27-.24.55-.46.82-.67a11.86,11.86,0,0,1,1-.7,2.39,2.39,0,0,1,.22-.12c.28-.16.56-.31.84-.44l.52-.22.37-.15.59-.19.34-.1L80,55l.21,0c.31-.06.62-.1.93-.13s.83-.06,1.25-.06h.34c.35,0,.71,0,1.07,0l.2,0c.42,0,.83.08,1.25.13l.32,0,1,.16.24,0,2.06.4c.69.14,1.38.28,2.06.4l.1,0,.16,0c.34.06.67.12,1,.16l.29,0c.41.05.81.1,1.2.13l.24,0,1,0h.31a11.46,11.46,0,0,0,1.17-.06h0l.63-.09.18,0a8.64,8.64,0,0,0,.85-.19l.24-.07.61-.19.32-.13a3.69,3.69,0,0,0,.42-.17l.09,0c.26-.12.52-.26.78-.41l.18-.1a10.83,10.83,0,0,0,1-.65l.05,0c.24-.18.47-.38.71-.59l.17-.16a5.62,5.62,0,0,0,.44-.41l.28-.28c.29-.31.55-.61.8-.92h0l.07-.1c.25-.31.47-.62.68-.94l.07-.1c.06-.08.1-.17.15-.25.15-.24.29-.48.42-.73,0-.06.08-.12.11-.18s0-.13.08-.19c.15-.31.29-.62.42-.94a1.54,1.54,0,0,0,.08-.19s0-.06,0-.09.09-.26.13-.39.13-.38.19-.57.07-.28.11-.42.07-.25.1-.38a.8.8,0,0,0,0-.15c.06-.26.11-.52.16-.77l.06-.35q.09-.57.15-1.14a.13.13,0,0,1,0-.06c0-.36.06-.73.08-1.1,0-.13,0-.26,0-.39s0-.52,0-.79v-.46c0-.24,0-.49,0-.74s0-.31,0-.47,0-.51,0-.76,0-.3,0-.45,0-.58,0-.86c0-.12,0-.24,0-.36,0-.4,0-.8-.08-1.2s0-.8-.07-1.2c0-.12,0-.25,0-.37,0-.29,0-.57-.05-.86s0-.31,0-.47l0-.77c0-.17,0-.33,0-.5s0-.5,0-.76,0-.32,0-.48,0-.53,0-.8,0-.29,0-.44c0-.33.05-.66.08-1,0-.07,0-.14,0-.22,0-.4.09-.8.16-1.2l.06-.34c0-.28.11-.57.17-.86l.15-.57.12-.46c.06-.21.13-.41.2-.61l.15-.43.12-.28c.14-.35.29-.7.46-1.05l.21-.4c.14-.27.3-.53.46-.8s.15-.25.23-.38c.23-.34.48-.69.75-1l.08-.1q.41-.51.87-1c.26-.28.52-.52.78-.76l.18-.17c.28-.24.55-.47.83-.68s.69-.49,1-.7l.21-.11c.28-.16.56-.31.84-.44l.53-.23.37-.14c.2-.08.39-.13.59-.19l.33-.1a6.2,6.2,0,0,1,.72-.16l.21-.05.92-.12c.42-.05.84-.06,1.26-.07h.33c.36,0,.71,0,1.07,0h.2c.42,0,.84.08,1.26.14l.32,0,1,.17.25,0c.69.12,1.37.26,2.06.4l2.06.39.1,0,.15,0,1,.16.3,0c.4.06.8.1,1.2.14h.23c.34,0,.67,0,1,0,.1,0,.2,0,.3,0,.4,0,.79,0,1.18,0h0l.64-.08.16,0c.29-.05.57-.11.86-.18l.24-.08c.2,0,.41-.12.61-.19l.32-.12.41-.17.09-.05c.26-.12.52-.26.78-.4l.19-.11a9.3,9.3,0,0,0,.95-.64.1.1,0,0,0,.05,0c.24-.18.48-.37.72-.58l.17-.16Z"/><path class="cls-4" d="M141.61,13.94c-4.9,5.15-10.2,4.09-15.33,3.07s-10-2-14.48,2.76S107.64,30.19,108,36.21s.79,12.22-4.11,17.37-10.21,4.1-15.33,3.07-10-2-14.49,2.76-4.16,10.43-3.77,16.44.78,12.22-4.12,17.38S56,97.32,50.87,96.3s-10-2-14.49,2.76-4.16,10.43-3.78,16.44.79,12.23-4.11,17.38l-.55-.7c4.53-4.76,4.16-10.44,3.77-16.44s-.78-12.22,4.12-17.38,10.2-4.1,15.33-3.07,10,2,14.49-2.76,4.16-10.43,3.78-16.44-.79-12.22,4.11-17.38,10.2-4.1,15.33-3.07,10,2,14.49-2.75,4.16-10.44,3.77-16.45-.79-12.22,4.12-17.37S121.45,15,126.58,16s10,2,14.49-2.76Z"/></g></g></g></svg>