<svg xmlns="http://www.w3.org/2000/svg" viewBox="0 0 63.11 43.56"><defs><style>.cls-1{isolation:isolate;}.cls-2{fill:#d5b3aa;}.cls-3{fill:#a98c7a;}.cls-4{fill:#f3d7d6;}</style></defs><title>Fichier 3</title><g id="Calque_2" data-name="Calque 2"><g id="OBJECTS"><g class="cls-1"><polygon class="cls-2" points="21.35 13.16 32.84 22.5 29.45 41.77 17.95 32.43 21.35 13.16"/><polygon class="cls-3" points="17.95 32.43 29.45 41.77 11.49 43.56 0 34.22 17.95 32.43"/><polygon class="cls-4" points="3.39 14.95 21.35 13.16 17.95 32.43 0 34.22 3.39 14.95"/></g><g class="cls-1"><polygon class="cls-2" points="53.27 0 47.98 4.31 49.54 13.19 54.84 8.88 53.27 0"/><polygon class="cls-3" points="54.84 8.88 49.54 13.19 57.81 14.01 63.11 9.7 54.84 8.88"/><polygon class="cls-4" points="61.55 0.82 53.27 0 54.84 8.88 63.11 9.7 61.55 0.82"/></g></g></g></svg>